<!-- logo.svg -->
<svg xmlns="http://www.w3.org/2000/svg" width="540" height="84" viewBox="0 0 540 84">
  <defs>
    <linearGradient id="g" x1="0" x2="1" y1="0" y2="1">
      <stop offset="0" stop-color="#ff9266"/>
      <stop offset="1" stop-color="#ff6a45"/>
    </linearGradient>
  </defs>
  <rect rx="12" width="540" height="84" fill="#ffffff" opacity="0.0"/>
  <!-- apple shape -->
  <g transform="translate(8,4)">
    <path d="M28 6c-4-2-9 0-11 3s-2 7 1 10 6 5 11 4 8-5 9-9-3-7-10-8z" fill="url(#g)"/>
    <path d="M26 2c1 1 3 1 4 0 0 0 1-1 1-2s-1-1-2-1-3 0-3 1-0 1 0 2z" fill="#2d9f3f"/>
    <circle cx="22" cy="14" r="1.6" fill="#ffffff" opacity="0.25"/>
  </g>

  <!-- text -->
  <g transform="translate(72,14)">
    <text x="30" y="18" font-family="Vazir, Arial, sans-serif" font-size="30" font-weight="700" fill="#052235">Seedling Pro</text>
    <text x="30" y="36" font-family="Vazir, Arial, sans-serif" font-size="22" fill="#334155">داشبورد نهال سیب</text>
  </g>
</svg>
